<?xml version="1.0" standalone="no"?>
<!DOCTYPE svg PUBLIC "-//W3C//DTD SVG 20010904//EN"
 "http://www.w3.org/TR/2001/REC-SVG-20010904/DTD/svg10.dtd">
<svg version="1.0" xmlns="http://www.w3.org/2000/svg"
 width="354.000000pt" height="344.000000pt" viewBox="0 0 354.000000 344.000000"
 preserveAspectRatio="xMidYMid meet">

<g transform="translate(0.000000,344.000000) scale(0.100000,-0.100000)"
fill="#000000" stroke="none">
<path d="M0 1720 l0 -1720 1770 0 1770 0 0 1720 0 1720 -1770 0 -1770 0 0
-1720z m635 339 c75 -21 135 -106 135 -191 0 -26 -3 -28 -39 -28 -21 0 -59 -3
-85 -6 l-46 -7 0 35 c0 39 -15 58 -45 58 -42 0 -45 -14 -45 -220 0 -206 3
-220 45 -220 30 0 45 19 45 57 l0 34 83 -3 c79 -3 82 -4 85 -28 2 -13 -2 -42
-8 -65 -29 -95 -93 -139 -205 -139 -87 0 -143 26 -182 86 l-28 41 -3 213 c-2
136 1 227 8 254 29 109 154 165 285 129z m1452 -13 c61 -29 99 -86 105 -156
l3 -45 -79 -8 c-84 -8 -101 -2 -92 35 7 28 -17 50 -49 46 l-30 -3 0 -209 c0
-188 2 -210 18 -220 25 -16 51 4 57 45 l5 34 79 3 c44 2 83 -1 88 -6 6 -6 5
-31 -2 -67 -25 -119 -137 -185 -266 -156 -68 16 -139 78 -149 133 -3 18 -5
132 -3 254 3 216 3 221 28 257 56 83 184 111 287 63z m-937 -1 c0 -9 32 -163
70 -342 39 -179 70 -335 70 -345 0 -16 -9 -18 -84 -18 l-85 0 -6 55 -7 55 -58
0 c-64 0 -62 2 -75 -72 l-6 -38 -86 0 c-84 0 -85 0 -79 23 3 12 38 174 77 360
l72 337 99 0 c82 0 98 -3 98 -15z m580 -55 l0 -70 -70 0 -70 0 -2 -287 -3
-288 -82 -3 -83 -3 -2 288 -3 288 -67 3 -68 3 0 69 0 70 225 0 225 0 0 -70z
m700 -75 c0 -80 4 -145 9 -145 5 0 23 3 40 6 l31 7 0 138 0 139 85 0 85 0 0
-360 0 -360 -85 0 -85 0 0 145 0 145 -40 0 -39 0 -3 -142 -3 -143 -82 -3 -83
-3 0 361 0 360 85 0 85 0 0 -145z m490 -126 c0 -167 4 -278 10 -290 6 -11 21
-19 35 -19 14 0 29 8 35 19 6 12 10 123 10 290 l0 271 85 0 85 0 0 -266 c0
-160 -4 -282 -11 -309 -17 -67 -69 -122 -136 -141 -59 -17 -127 -13 -174 11
-39 21 -87 79 -98 122 -7 22 -11 151 -11 311 l0 272 85 0 85 0 0 -271z"/>
<path d="M475 2038 c-16 -6 -43 -22 -59 -37 -51 -47 -56 -72 -56 -298 0 -229
8 -267 65 -311 57 -45 165 -53 234 -18 45 24 83 79 89 131 l5 45 -67 0 c-64 0
-66 -1 -66 -25 0 -31 -33 -65 -62 -65 -60 1 -68 29 -68 242 0 212 5 231 62
236 28 2 40 -2 52 -20 9 -12 16 -33 16 -45 0 -25 20 -29 93 -17 31 6 37 11 37
31 0 60 -55 130 -119 152 -41 13 -115 13 -156 -1z"/>
<path d="M1884 2031 c-89 -40 -107 -106 -102 -364 4 -197 8 -216 65 -268 67
-62 182 -65 264 -8 30 21 54 67 64 122 l7 37 -71 0 -71 0 0 -28 c0 -55 -68
-83 -103 -44 -15 16 -17 47 -17 224 0 186 2 206 18 221 41 37 102 9 102 -48
l0 -28 66 6 c37 4 69 8 71 11 9 9 -10 78 -31 109 -47 71 -173 99 -262 58z"/>
<path d="M966 2023 c-3 -10 -35 -157 -71 -328 -36 -170 -68 -316 -70 -322 -3
-10 14 -13 64 -13 l68 0 7 50 7 50 75 0 c80 0 78 2 89 -62 l6 -38 64 0 c44 0
65 4 65 12 0 9 -112 543 -135 646 -5 21 -11 22 -85 22 -66 0 -79 -3 -84 -17z
m124 -325 c9 -62 15 -119 12 -125 -5 -14 -98 -18 -106 -5 -8 13 36 246 48 254
20 13 30 -12 46 -124z"/>
<path d="M1051 1809 c-4 -19 -41 -223 -41 -226 0 -2 18 -3 39 -3 39 0 40 0 35
33 -3 17 -11 70 -19 117 -7 47 -13 82 -14 79z"/>
<path d="M1292 1988 l3 -53 68 -3 67 -3 0 -284 0 -285 70 0 70 0 0 285 0 285
70 0 70 0 0 55 0 55 -211 0 -210 0 3 -52z"/>
<path d="M2280 1700 l0 -340 65 0 65 0 0 139 c0 151 0 151 60 151 60 0 60 0
60 -151 l0 -139 65 0 65 0 0 340 0 340 -65 0 -64 0 -3 -137 -3 -138 -57 -3
-58 -3 0 141 0 140 -65 0 -65 0 0 -340z"/>
<path d="M2772 1758 c3 -275 4 -284 26 -320 37 -60 84 -83 168 -83 88 0 132
26 169 99 25 49 25 52 25 318 l0 268 -65 0 -64 0 -3 -269 c-3 -248 -4 -271
-22 -290 -26 -29 -60 -26 -85 5 -20 25 -21 39 -21 290 l0 264 -66 0 -65 0 3
-282z"/>
</g>
</svg>
